<svg width="245" height="140" viewBox="0 0 245 140" fill="none" xmlns="http://www.w3.org/2000/svg">
<rect x="5.65685" y="70" width="90.995" height="90.9949" rx="19" transform="rotate(-45 5.65685 70)" stroke="#2D9CDB" stroke-width="8"/>
<path d="M99 70C99 86.0162 86.0163 99 70 99C53.9837 99 41 86.0162 41 70C41 53.9837 53.9837 41 70 41C86.0163 41 99 53.9837 99 70Z" stroke="#2D9CDB" stroke-width="8"/>
<path d="M166.52 100L163.112 92.08H146.648L143.24 100H137L152.312 66.16H157.352L172.664 100H166.52ZM148.664 87.28H161.048L154.856 72.88L148.664 87.28ZM190.555 100.432C187.227 100.432 184.315 99.728 181.819 98.32C179.355 96.88 177.451 94.848 176.107 92.224C174.795 89.6 174.139 86.544 174.139 83.056C174.139 79.568 174.795 76.528 176.107 73.936C177.451 71.312 179.355 69.296 181.819 67.888C184.315 66.448 187.227 65.728 190.555 65.728C192.827 65.728 194.971 66.08 196.987 66.784C199.003 67.488 200.699 68.48 202.075 69.76L200.011 74.272C198.475 73.056 196.955 72.176 195.451 71.632C193.947 71.056 192.347 70.768 190.651 70.768C187.387 70.768 184.859 71.824 183.067 73.936C181.307 76.048 180.427 79.088 180.427 83.056C180.427 87.056 181.307 90.112 183.067 92.224C184.859 94.336 187.387 95.392 190.651 95.392C192.347 95.392 193.947 95.12 195.451 94.576C196.955 94 198.475 93.104 200.011 91.888L202.075 96.4C200.699 97.68 199.003 98.672 196.987 99.376C194.971 100.08 192.827 100.432 190.555 100.432ZM235.902 66.16H240.75V100H235.278V77.632L226.35 94.528H222.222L213.246 77.872L213.294 100H207.822V66.16H212.718L224.334 88.288L235.902 66.16Z" fill="#376B83"/>
<path d="M164.084 38.26V58H161.984L162.012 42.712L155.6 54.864H153.976L147.536 42.824L147.564 58H145.436V38.26H147.34L154.816 52.568L162.208 38.26H164.084ZM175.251 58.224C172.171 58.224 169.707 57.3933 167.859 55.732L168.755 53.968C169.726 54.7893 170.715 55.3773 171.723 55.732C172.75 56.0867 173.935 56.264 175.279 56.264C176.866 56.264 178.088 55.956 178.947 55.34C179.806 54.724 180.235 53.856 180.235 52.736C180.235 52.0827 180.03 51.5507 179.619 51.14C179.208 50.7293 178.667 50.4027 177.995 50.16C177.323 49.9173 176.418 49.6653 175.279 49.404C173.748 49.0493 172.488 48.676 171.499 48.284C170.528 47.892 169.735 47.332 169.119 46.604C168.522 45.876 168.223 44.924 168.223 43.748C168.223 42.628 168.512 41.6387 169.091 40.78C169.688 39.9027 170.528 39.2307 171.611 38.764C172.712 38.2787 173.982 38.036 175.419 38.036C176.782 38.036 178.051 38.2507 179.227 38.68C180.422 39.1093 181.43 39.7253 182.251 40.528L181.383 42.292C180.45 41.4893 179.498 40.9107 178.527 40.556C177.575 40.1827 176.539 39.996 175.419 39.996C173.888 39.996 172.684 40.3227 171.807 40.976C170.948 41.6107 170.519 42.5067 170.519 43.664C170.519 44.6533 170.902 45.4 171.667 45.904C172.432 46.408 173.59 46.8373 175.139 47.192C176.838 47.6027 178.172 47.9853 179.143 48.34C180.114 48.676 180.916 49.1893 181.551 49.88C182.204 50.5707 182.531 51.4947 182.531 52.652C182.531 53.772 182.232 54.752 181.635 55.592C181.056 56.432 180.216 57.0853 179.115 57.552C178.014 58 176.726 58.224 175.251 58.224ZM190.61 40.22H183.75V38.26H199.822V40.22H192.934V58H190.61V40.22Z" fill="#376B83"/>
</svg>
