<svg width="9" height="9" viewBox="0 0 9 9" fill="none" xmlns="http://www.w3.org/2000/svg">
<path fill-rule="evenodd" clip-rule="evenodd" d="M4.5 7.77273C6.30748 7.77273 7.77273 6.30748 7.77273 4.5C7.77273 2.69252 6.30748 1.22727 4.5 1.22727C2.69252 1.22727 1.22727 2.69252 1.22727 4.5C1.22727 6.30748 2.69252 7.77273 4.5 7.77273ZM4.5 9C6.98528 9 9 6.98528 9 4.5C9 2.01472 6.98528 0 4.5 0C2.01472 0 0 2.01472 0 4.5C0 6.98528 2.01472 9 4.5 9Z" fill="#3B4652"/>
<path d="M5.01123 2.45459L5 5" stroke="#3B4652"/>
<line x1="5" y1="4.5" x2="2" y2="4.5" stroke="#3B4652"/>
</svg>
