<?xml version="1.0" standalone="no"?>
<!DOCTYPE svg PUBLIC "-//W3C//DTD SVG 20010904//EN"
 "http://www.w3.org/TR/2001/REC-SVG-20010904/DTD/svg10.dtd">
<svg version="1.0" xmlns="http://www.w3.org/2000/svg"
 width="1024.000000pt" height="1007.000000pt" viewBox="0 0 1024.000000 1007.000000"
 preserveAspectRatio="xMidYMid meet">
<metadata>
Created by potrace 1.13, written by Peter Selinger 2001-2015
</metadata>
<g transform="translate(0.000000,1007.000000) scale(0.100000,-0.100000)"
fill="#000000" stroke="none">
<path d="M6100 9399 c-320 -14 -1427 -131 -1825 -194 -412 -65 -802 -147 -970
-205 -234 -81 -431 -190 -552 -307 -57 -55 -103 -125 -103 -157 0 -8 -4 -17
-9 -21 -9 -5 -220 -35 -250 -35 -9 0 -43 43 -80 103 -37 58 -118 163 -190 244
-117 132 -132 145 -210 185 -83 42 -86 43 -185 43 -166 0 -290 -51 -430 -178
-86 -77 -161 -179 -314 -430 -142 -234 -243 -367 -383 -507 -127 -127 -230
-202 -385 -280 -123 -63 -129 -67 -132 -99 -4 -40 20 -69 92 -110 62 -35 94
-68 140 -145 51 -86 69 -149 135 -476 67 -330 86 -382 186 -502 53 -65 153
-147 213 -176 38 -18 38 -25 12 -117 -12 -43 -26 -142 -35 -255 -8 -110 -23
-217 -35 -265 -43 -165 -129 -322 -236 -435 -63 -66 -73 -96 -45 -132 15 -18
36 -28 79 -37 141 -28 226 -101 388 -334 154 -221 170 -241 239 -296 81 -65
110 -79 229 -108 125 -30 172 -32 197 -7 14 15 182 382 228 498 5 14 14 -14
30 -92 92 -464 307 -968 590 -1382 151 -223 256 -347 480 -571 334 -333 614
-535 1032 -743 459 -229 906 -355 1439 -406 137 -13 555 -13 695 0 745 70
1419 324 2012 756 165 121 270 210 426 364 457 446 782 963 981 1561 70 208
108 363 146 594 38 227 50 386 50 634 0 247 -12 388 -51 621 -50 302 -135 599
-249 870 l-48 115 18 70 c50 188 2 388 -134 559 l-54 66 25 62 c23 57 25 72
21 182 -5 142 -25 197 -102 283 -47 53 -155 137 -214 167 l-32 17 6 67 c5 56
3 77 -13 113 -21 48 -147 195 -183 214 -18 10 -22 21 -23 81 -3 96 -31 150
-131 249 -89 88 -182 144 -319 189 -70 24 -115 29 -509 56 -713 49 -1170 60
-1658 39z m1335 -138 c381 -20 724 -60 825 -96 148 -52 320 -202 320 -280 0
-18 -9 -44 -21 -59 -11 -14 -19 -31 -17 -38 2 -6 49 -41 103 -77 126 -83 149
-115 140 -191 -8 -63 -20 -90 -40 -90 -8 0 -51 12 -97 26 -87 28 -559 126
-567 118 -11 -11 23 -25 174 -73 176 -57 401 -141 518 -195 230 -105 371 -253
368 -386 0 -42 -35 -160 -47 -160 -2 0 -64 35 -137 78 -72 43 -150 88 -171
101 -37 21 -66 22 -66 2 0 -5 80 -79 178 -164 264 -231 347 -340 377 -498 17
-87 17 -90 -5 -179 -23 -95 -40 -116 -40 -52 0 94 -112 235 -252 318 -134 78
-386 165 -608 208 -418 81 -840 105 -1515 86 -225 -6 -563 -15 -750 -20 -341
-8 -561 -27 -1515 -129 -102 -11 -232 -25 -290 -30 -671 -65 -1213 -175 -1610
-328 -239 -92 -374 -167 -467 -262 -58 -59 -84 -107 -93 -171 l-7 -45 -19 40
c-15 31 -19 62 -19 135 0 86 3 101 31 160 57 120 181 246 357 363 100 66 332
200 447 257 180 90 312 188 223 165 -147 -36 -619 -286 -762 -403 l-44 -36
-36 21 c-20 12 -45 33 -55 47 -18 24 -19 29 -5 69 11 33 38 65 119 142 117
110 252 202 424 291 64 32 116 63 116 68 0 14 -68 -3 -175 -44 l-100 -39 -42
47 c-45 50 -51 77 -29 120 32 61 102 111 285 202 117 58 462 210 477 210 16 0
154 73 154 81 0 40 -311 -48 -530 -150 l-125 -59 -30 19 c-60 36 -43 89 69
212 65 71 85 86 231 166 196 108 269 137 501 195 351 87 456 105 1044 171 311
35 685 78 831 94 620 71 1197 83 1974 42z m-5557 -358 c58 -29 164 -128 210
-196 50 -73 193 -309 189 -313 -2 -2 -47 -19 -101 -39 -54 -19 -106 -39 -115
-44 -14 -8 -23 3 -54 62 -47 92 -101 163 -155 204 -122 92 -292 61 -440 -81
-329 -315 -520 -1003 -390 -1406 34 -107 88 -195 88 -144 0 11 9 8 36 -13 34
-26 37 -26 50 -9 16 23 28 77 53 252 56 378 51 359 142 527 127 235 182 304
274 343 33 13 85 19 85 9 0 -2 -15 -33 -32 -67 -31 -60 -33 -68 -33 -174 l0
-112 -42 -5 c-120 -13 -233 -193 -304 -482 -49 -200 -75 -621 -48 -785 5 -36
23 -102 39 -147 l29 -82 -55 -11 c-173 -36 -437 67 -563 221 -66 80 -119 224
-167 454 -48 229 -84 365 -115 429 -34 72 -121 179 -176 215 l-52 35 63 26
c100 43 172 96 310 230 220 214 292 303 473 580 91 140 190 285 220 322 68 86
160 163 238 200 55 26 69 28 175 28 105 0 119 -2 168 -27z m713 -580 c-27 -32
-58 -69 -68 -81 l-19 -24 -119 12 c-67 7 -160 10 -214 6 -124 -8 -112 0 134
80 161 53 201 63 263 63 l73 1 -50 -57z m-439 -234 l88 -12 48 -51 c42 -47
102 -149 102 -174 0 -14 -156 -34 -204 -27 -68 11 -166 54 -252 111 -99 65
-111 78 -93 100 16 19 65 45 104 55 46 11 110 10 207 -2z m-292 -275 c75 -92
179 -170 275 -207 28 -10 51 -20 52 -21 2 -1 -6 -20 -17 -41 -11 -22 -20 -46
-20 -53 0 -38 -164 21 -240 85 -18 15 -59 67 -90 114 -56 85 -57 88 -49 135 4
27 8 55 8 62 1 6 3 12 5 12 3 0 37 -39 76 -86z m-156 -190 c29 -11 56 -89 49
-144 -3 -27 0 -77 7 -109 12 -60 12 -60 -17 -98 -72 -92 -152 -237 -217 -396
-55 -131 -133 -367 -142 -427 l-8 -55 -7 45 c-11 64 -10 210 1 320 6 52 15
145 21 205 22 226 88 470 156 572 43 66 113 104 157 87z m5531 -204 c61 -6
136 -17 167 -26 31 -8 76 -14 100 -13 40 2 283 -18 512 -41 114 -12 370 -76
496 -124 47 -18 141 -55 209 -81 186 -72 334 -182 387 -288 44 -85 121 -288
167 -437 123 -398 174 -825 149 -1238 -16 -249 -32 -367 -77 -573 -234 -1053
-939 -1947 -1925 -2439 -766 -383 -1675 -482 -2517 -275 -530 131 -995 361
-1433 709 -138 110 -374 342 -491 481 -303 361 -532 773 -672 1210 -131 409
-205 991 -147 1160 25 72 25 83 1 109 -18 20 -19 27 -6 166 20 209 71 473 125
645 71 225 82 252 118 296 95 115 221 197 411 266 248 90 396 133 636 183 55
12 120 28 145 35 25 8 106 23 180 35 74 12 191 34 260 50 180 41 235 48 425
60 161 10 233 15 520 40 66 5 181 14 255 20 192 15 431 37 530 49 46 6 211 12
365 12 154 1 330 5 390 9 177 11 601 11 720 0z m-5257 -98 c21 -7 68 -9 128
-5 81 5 94 4 94 -9 0 -27 -54 -75 -96 -87 -115 -32 -199 19 -238 147 -7 22 -6
21 36 -6 24 -16 58 -34 76 -40z m15 -267 c26 -4 47 -10 47 -14 -1 -3 -9 -31
-20 -61 -11 -30 -19 -79 -20 -108 0 -42 -9 -72 -40 -135 -22 -45 -50 -125 -62
-177 -20 -85 -23 -122 -23 -350 0 -205 4 -272 18 -344 25 -124 68 -247 112
-317 l37 -60 -21 -52 c-12 -29 -28 -75 -36 -104 -9 -29 -68 -186 -131 -350
-64 -164 -134 -345 -154 -403 -21 -58 -56 -145 -79 -195 -47 -105 -62 -115
-154 -95 -111 23 -158 65 -340 307 -250 333 -320 406 -409 427 l-27 6 44 63
c58 83 130 233 160 332 17 57 30 144 45 305 22 235 29 274 62 353 l21 47 51
-7 c28 -5 88 -8 134 -8 45 0 82 0 82 0 0 0 -9 -45 -21 -100 -45 -222 -34 -584
26 -820 32 -126 102 -302 127 -319 41 -29 62 1 99 149 6 28 13 104 15 170 8
383 30 667 49 620 68 -174 141 -310 165 -310 22 0 24 52 6 200 -22 181 -50
743 -42 834 18 189 81 388 164 513 23 36 26 38 47 24 12 -8 43 -17 68 -21z"/>
<path d="M5985 9074 c-732 -35 -1193 -82 -1923 -197 -223 -35 -276 -47 -293
-63 -29 -29 -211 -772 -225 -918 -3 -32 -13 -128 -23 -214 -19 -161 -17 -197
15 -209 10 -3 92 8 183 25 1131 217 2391 325 3576 308 242 -3 505 -11 585 -16
80 -6 155 -8 167 -5 14 3 25 16 29 32 6 24 -34 404 -56 528 -25 141 -57 260
-123 459 -55 167 -77 221 -92 227 -55 23 -516 41 -1125 44 -344 1 -656 1 -695
-1z m1555 -114 c120 -7 199 -16 207 -23 15 -15 103 -296 143 -454 32 -129 74
-384 84 -515 l7 -78 -96 0 c-106 0 -747 -27 -2255 -95 l-985 -44 -365 -60
c-201 -33 -432 -71 -514 -85 -83 -14 -151 -24 -153 -23 -5 5 14 177 32 287 21
132 149 711 176 802 12 37 24 68 27 68 3 0 132 16 286 35 1389 171 1423 175
1691 189 322 17 1408 15 1715 -4z"/>
<path d="M7441 8863 c-55 -11 -101 -63 -101 -116 0 -34 62 -102 112 -122 55
-22 165 -13 203 16 23 19 45 72 45 111 0 25 -47 76 -91 98 -37 19 -106 24
-168 13z m132 -68 c31 -13 57 -52 57 -85 0 -15 -65 -34 -109 -31 -69 4 -111
33 -111 76 0 50 87 72 163 40z"/>
<path d="M3985 8682 c-53 -25 -75 -51 -86 -102 -9 -40 -7 -45 25 -84 32 -39
39 -43 107 -54 66 -10 78 -9 116 8 47 20 103 89 103 126 0 70 -58 115 -158
121 -51 3 -76 -1 -107 -15z m139 -52 c21 -4 43 -15 47 -22 15 -23 10 -64 -11
-83 -22 -20 -93 -30 -143 -21 -70 13 -73 91 -4 121 38 17 58 18 111 5z"/>
<path d="M7553 8321 c-33 -5 -49 -15 -78 -48 -22 -26 -35 -51 -35 -70 0 -36
47 -95 94 -117 44 -21 157 -21 196 -1 36 19 46 36 55 98 7 47 6 49 -34 86 -40
37 -99 63 -137 59 -11 0 -38 -4 -61 -7z m114 -71 c50 -22 63 -55 38 -94 -33
-50 -159 -27 -199 36 -8 14 -5 23 19 48 35 36 78 39 142 10z"/>
<path d="M3920 8067 c-64 -27 -100 -72 -100 -125 0 -27 8 -42 36 -67 29 -27
48 -35 107 -44 66 -10 76 -9 117 12 80 39 117 148 68 195 -53 49 -150 61 -228
29z m129 -43 c18 -4 39 -17 47 -30 14 -20 14 -26 1 -51 -22 -42 -56 -56 -123
-51 -72 6 -99 31 -81 78 17 46 83 68 156 54z"/>
<path d="M5150 6970 c-356 -16 -601 -39 -990 -95 -96 -14 -190 -25 -209 -25
l-33 0 3 -232 4 -232 -95 -79 c-290 -238 -406 -383 -466 -583 -26 -83 -26
-295 0 -378 81 -268 321 -514 686 -704 238 -124 499 -212 860 -288 44 -10 98
-30 130 -49 147 -88 292 -147 437 -180 58 -13 107 -26 110 -28 2 -3 -15 -119
-38 -259 l-42 -254 -126 -32 c-151 -38 -298 -106 -391 -181 -72 -58 -104 -94
-144 -162 -25 -45 -26 -47 -9 -67 28 -32 206 -126 343 -181 454 -181 827 -173
1281 29 161 72 279 149 279 182 0 20 -47 87 -99 141 -100 106 -260 190 -454
239 -67 17 -123 32 -124 32 -1 1 -15 82 -32 181 -17 99 -36 215 -44 257 l-13
77 55 11 c165 33 345 102 491 190 36 21 76 41 90 44 14 3 97 22 185 42 760
172 1295 542 1412 974 24 88 24 262 0 350 -52 193 -185 371 -403 541 -124 96
-168 143 -160 173 4 11 9 109 13 217 l6 196 -59 7 c-32 4 -174 22 -314 41
-294 39 -517 61 -780 75 -253 14 -1121 20 -1360 10z m-975 -335 c61 -3 247
-21 415 -40 546 -62 910 -77 1510 -64 377 8 526 18 920 58 208 21 539 45 544
40 10 -12 -38 -365 -60 -448 -9 -31 -24 -87 -34 -126 -59 -230 -181 -528 -321
-785 -78 -145 -251 -381 -359 -491 -165 -169 -531 -310 -881 -339 -387 -34
-888 110 -1113 320 -99 91 -268 317 -371 495 -34 58 -145 278 -162 321 -6 16
-21 54 -33 84 -12 30 -27 66 -32 80 -23 54 -69 209 -98 329 -18 69 -38 151
-45 181 -16 62 -31 182 -40 312 l-6 88 28 -5 c15 -2 78 -7 138 -10z m-195
-583 c67 -328 153 -581 289 -852 112 -222 203 -361 348 -531 46 -54 82 -99 79
-99 -2 0 -54 15 -114 34 -392 123 -655 267 -852 465 -167 168 -225 291 -223
471 1 148 55 280 164 404 48 54 271 258 276 252 2 -2 17 -67 33 -144z m3662
125 c7 -7 50 -43 95 -80 332 -275 414 -575 235 -866 -159 -258 -503 -477 -986
-627 -61 -18 -112 -32 -114 -30 -2 2 24 34 57 71 214 236 403 572 532 944 44
128 120 416 139 529 12 73 18 82 42 59z"/>
<path d="M3109 3817 c-14 -7 -39 -27 -55 -46 -38 -45 -39 -114 -2 -188 29 -59
27 -90 -7 -99 -51 -13 -93 40 -104 131 -5 43 -9 50 -29 53 -25 4 -92 -23 -92
-37 0 -39 47 -139 94 -198 34 -45 47 -53 83 -59 87 -13 135 11 184 91 20 32
25 85 10 113 -22 40 -51 109 -51 120 0 13 44 27 57 19 4 -3 16 -23 27 -44 48
-100 58 -107 103 -78 22 15 25 22 19 57 -15 96 -115 183 -201 177 -5 0 -22 -6
-36 -12z"/>
<path d="M8276 3768 c-78 -85 -86 -150 -28 -210 43 -46 113 -36 199 29 22 17
33 20 38 13 12 -19 -28 -63 -78 -88 -39 -20 -47 -28 -47 -52 0 -40 40 -65 84
-50 33 10 115 88 135 127 12 23 14 94 5 131 -9 31 -65 56 -114 49 -22 -3 -64
-21 -93 -40 -40 -27 -53 -32 -55 -20 -5 18 24 50 60 69 38 19 37 54 -2 82 -16
12 -33 22 -39 22 -5 0 -34 -28 -65 -62z"/>
<path d="M3323 3538 c-34 -29 -106 -91 -160 -137 -120 -102 -126 -112 -88
-151 16 -17 36 -30 44 -30 9 0 39 21 66 46 120 109 203 184 238 215 20 18 37
37 37 42 0 19 -42 67 -59 67 -9 0 -44 -24 -78 -52z"/>
<path d="M8095 3552 c-38 -13 -115 -75 -115 -93 0 -10 -4 -21 -10 -24 -29 -18
12 -95 51 -95 20 0 39 20 39 40 0 19 57 77 66 67 4 -4 -9 -24 -28 -45 -47 -52
-59 -119 -28 -162 56 -78 117 -90 200 -39 31 19 50 38 50 50 0 10 16 33 35 50
19 18 35 42 35 54 0 12 -20 40 -45 65 -25 24 -45 50 -45 57 0 8 -8 16 -17 20
-10 3 -33 17 -52 31 -34 25 -99 37 -136 24z"/>
<path d="M7786 3439 c-14 -11 -26 -31 -26 -43 0 -26 38 -66 63 -66 11 0 17 -8
17 -23 0 -13 12 -37 28 -55 15 -17 38 -45 52 -63 14 -17 34 -41 45 -53 11 -11
39 -43 61 -70 40 -48 41 -51 27 -73 -21 -31 -4 -70 33 -79 23 -6 32 -1 55 27
38 46 47 93 24 133 -10 17 -23 36 -29 41 -6 6 -40 44 -76 85 -104 122 -142
160 -161 160 -12 0 -16 5 -13 14 6 16 -44 86 -62 86 -6 0 -23 -9 -38 -21z"/>
<path d="M3436 3413 c-31 -8 -69 -35 -131 -92 l-59 -53 -1 -92 0 -91 43 -62
c23 -35 48 -63 54 -63 7 0 21 -9 32 -19 28 -25 121 -45 147 -31 10 6 19 17 19
25 0 8 14 24 30 37 17 12 30 29 30 39 0 9 7 22 15 29 8 7 15 21 15 32 0 25
-29 68 -46 68 -7 0 -21 11 -30 25 -21 32 -78 35 -94 6 -15 -30 -12 -56 10 -76
25 -22 25 -27 2 -55 -18 -23 -19 -23 -48 -5 -77 46 -98 119 -55 189 27 43 105
96 142 96 41 0 111 -70 124 -123 9 -34 15 -43 37 -45 39 -5 71 45 62 94 -9 50
-115 158 -163 167 -37 8 -105 7 -135 0z"/>
<path d="M7728 3233 c-15 -2 -43 -22 -65 -46 -20 -23 -51 -49 -68 -58 -42 -23
-43 -51 -3 -101 19 -24 47 -63 63 -88 16 -25 35 -52 42 -60 8 -8 23 -27 34
-42 25 -34 58 -36 87 -5 27 29 28 49 2 79 -102 119 -121 162 -91 199 27 33 47
20 129 -81 38 -47 76 -86 86 -88 21 -4 66 37 66 62 0 10 -13 34 -30 53 -16 18
-30 38 -30 44 0 12 -86 93 -129 121 -26 18 -39 19 -93 11z"/>
<path d="M7388 3134 c-16 -8 -28 -19 -28 -25 0 -22 41 -89 55 -89 8 0 15 -7
15 -16 0 -9 23 -50 50 -91 28 -41 50 -79 50 -83 0 -5 6 -13 13 -17 8 -4 26
-29 41 -55 16 -27 35 -48 44 -48 19 0 82 47 82 62 0 5 -13 27 -29 47 -17 21
-35 50 -43 67 -7 16 -23 40 -36 53 -12 14 -37 46 -54 73 -17 26 -37 48 -45 48
-7 0 -13 10 -13 23 0 26 -38 67 -61 67 -8 -1 -26 -8 -41 -16z"/>
<path d="M3970 3041 c-46 -11 -88 -40 -129 -88 -22 -27 -41 -43 -41 -37 0 13
-133 114 -149 114 -20 0 -51 -40 -51 -65 0 -18 15 -37 58 -70 62 -49 85 -54
115 -27 19 16 20 16 10 -3 -32 -62 -18 -163 30 -227 35 -45 140 -98 195 -98
33 0 45 6 67 31 14 18 25 41 23 53 -3 19 -10 21 -64 23 -145 3 -203 99 -129
211 57 87 138 107 197 49 18 -18 41 -47 50 -65 22 -41 52 -42 73 -2 23 45 18
71 -24 117 -63 67 -160 103 -231 84z"/>
<path d="M7252 3032 c-18 -14 -22 -24 -17 -45 4 -14 13 -31 21 -38 8 -6 14
-16 14 -21 0 -6 13 -27 28 -47 28 -35 46 -71 36 -71 -11 0 -90 54 -97 66 -4 8
-16 14 -25 14 -10 0 -34 12 -55 26 -33 22 -42 24 -69 15 -63 -22 -82 -56 -54
-96 7 -11 29 -49 48 -85 20 -36 47 -85 60 -110 14 -25 38 -69 54 -99 16 -29
35 -56 42 -59 8 -2 30 3 49 12 32 15 35 20 30 50 -3 18 -26 67 -52 110 -26 42
-45 80 -41 83 3 3 29 -10 58 -28 29 -19 60 -38 69 -44 10 -5 39 -22 65 -37 25
-16 51 -28 56 -28 5 0 25 12 44 26 39 30 44 61 15 102 -10 15 -40 61 -66 102
-26 41 -62 98 -80 125 -18 28 -37 60 -44 73 -14 27 -56 29 -89 4z"/>
<path d="M4213 2761 c-37 -23 -86 -92 -100 -141 -19 -62 -15 -97 16 -146 23
-38 37 -49 82 -65 69 -24 101 -24 148 1 84 42 137 190 98 273 -39 80 -172 123
-244 78z m132 -101 c39 -43 -4 -152 -63 -158 -34 -3 -76 32 -67 56 3 7 5 21 5
31 0 9 14 33 31 54 34 42 66 48 94 17z"/>
<path d="M4524 2653 c-15 -47 -58 -144 -66 -149 -4 -3 -8 -17 -8 -32 -1 -15
-7 -38 -15 -52 -8 -14 -14 -40 -15 -58 0 -26 5 -34 26 -42 63 -24 68 -18 130
153 17 49 37 67 72 67 36 0 35 -69 -3 -126 -8 -13 -15 -33 -15 -45 0 -13 -5
-38 -12 -56 -16 -43 4 -65 59 -67 l38 -1 23 75 c13 41 32 94 43 118 16 36 23
42 49 42 17 0 33 -6 36 -13 2 -7 -7 -57 -21 -110 -25 -98 -31 -152 -17 -161 4
-2 24 -7 44 -11 42 -8 44 -5 68 85 7 25 16 55 21 68 18 45 21 139 6 169 -28
54 -53 68 -122 68 -51 0 -68 4 -87 22 -29 27 -70 43 -111 43 -18 0 -41 7 -51
15 -27 20 -65 19 -72 -2z"/>
<path d="M6440 2650 c-8 -15 -7 -32 5 -65 8 -25 15 -47 15 -49 0 -2 -22 -6
-48 -10 -37 -5 -56 -14 -79 -39 -31 -33 -59 -99 -49 -116 4 -5 2 -12 -4 -16
-5 -3 -10 -1 -10 5 0 6 -10 24 -22 40 -60 82 -189 89 -260 13 -43 -45 -59
-102 -47 -173 18 -114 70 -164 168 -163 31 0 70 7 88 15 41 18 93 83 93 117 0
14 5 33 10 41 8 13 10 13 10 -2 0 -27 47 -75 90 -92 43 -17 104 -10 159 18 14
7 46 20 71 28 33 11 45 20 44 34 -2 28 -92 292 -115 336 -5 10 -9 25 -9 33 0
9 -7 27 -16 40 -21 32 -78 35 -94 5z m63 -264 c24 -46 24 -106 0 -123 -49 -36
-107 16 -105 96 1 80 69 98 105 27z m-342 -60 c38 -63 16 -146 -38 -146 -43 0
-61 17 -68 64 -9 59 1 101 28 113 32 14 56 4 78 -31z"/>
<path d="M6780 2663 c-107 -36 -150 -88 -150 -179 1 -73 30 -136 82 -177 32
-25 47 -30 96 -31 65 -1 150 34 192 79 19 20 21 29 13 62 -12 50 -43 56 -87
16 -50 -47 -94 -63 -133 -49 -24 8 -32 26 -12 26 6 0 27 7 47 16 21 9 48 21
62 26 82 34 95 56 63 115 -21 40 -64 75 -112 91 -37 13 -38 13 -61 5z"/>
<path d="M5711 2553 c-39 -8 -96 -48 -136 -97 l-37 -45 -1 -103 c-2 -115 7
-138 73 -194 80 -69 205 -78 298 -22 29 18 32 24 32 69 0 64 -16 70 -77 30
-38 -25 -57 -31 -101 -31 -47 0 -58 4 -82 30 -33 36 -40 71 -27 149 20 122
113 151 228 69 9 -6 24 -8 34 -4 25 9 12 94 -18 118 -29 22 -139 41 -186 31z"/>
<path d="M5050 2501 c-6 -11 -19 -62 -30 -113 -11 -51 -29 -137 -41 -190 -11
-54 -19 -112 -17 -130 3 -31 6 -33 45 -36 47 -3 55 6 67 71 8 42 8 43 42 21
41 -27 128 -13 170 27 86 83 82 265 -7 327 -13 9 -45 16 -74 17 -28 1 -56 4
-61 7 -5 3 -26 8 -46 12 -31 6 -39 3 -48 -13z m172 -118 c34 -31 20 -134 -22
-161 -21 -13 -62 -3 -75 18 -14 23 -6 91 15 125 24 39 52 45 82 18z"/>
</g>
</svg>
